<svg width="60" height="60" viewBox="0 0 60 60" fill="none" xmlns="http://www.w3.org/2000/svg">
<rect width="60" height="60" rx="10" fill="#88019E"/>
<path d="M29.9999 14.5216C26.0545 14.5216 22.8562 17.7746 22.8562 21.7874C22.8562 25.8002 26.0545 29.0532 29.9999 29.0532C33.9453 29.0532 37.1436 25.8002 37.1436 21.7874C37.1436 17.7746 33.9453 14.5216 29.9999 14.5216Z" fill="white"/>
<path d="M29.9999 32.8774C26.5781 32.8774 23.4299 33.4044 21.0963 34.2945C19.9337 34.7379 18.9144 35.2936 18.1656 35.9689C17.4181 36.643 16.8405 37.534 16.8405 38.6135C16.8405 39.693 17.4181 40.5841 18.1656 41.2582C18.9144 41.9334 19.9337 42.4891 21.0963 42.9326C23.4299 43.8226 26.5781 44.3497 29.9999 44.3497C33.4218 44.3497 36.5699 43.8226 38.9035 42.9326C40.0661 42.4891 41.0854 41.9334 41.8342 41.2582C42.5817 40.5841 43.1594 39.693 43.1594 38.6135C43.1594 37.534 42.5817 36.643 41.8342 35.9689C41.0854 35.2936 40.0661 34.7379 38.9035 34.2945C36.5699 33.4044 33.4218 32.8774 29.9999 32.8774Z" fill="white"/>
</svg>
