<svg width="684" height="57" viewBox="0 0 684 57" fill="none" xmlns="http://www.w3.org/2000/svg">
<path d="M15.6655 28.5C15.6655 30.4075 15.9713 32.2774 16.5827 34.1096C17.2186 35.9419 18.3192 37.5733 19.8846 39.004C21.4499 40.4346 23.5411 41.5892 26.1581 42.4676C28.7996 43.321 32.1382 43.7477 36.1738 43.7477C38.9131 43.7477 41.2978 43.6096 43.3278 43.3336C45.3579 43.0575 46.8865 42.6559 47.9138 42.1288V34.4861H34.7063V22.7021H62.0751V49.5079C60.4853 50.9135 58.6876 52.0931 56.682 53.0469C54.7009 54.0007 52.5853 54.7787 50.3351 55.3811C48.1094 55.9584 45.7859 56.3725 43.3645 56.6235C40.9676 56.8745 38.5707 57 36.1738 57C29.9614 57 24.5806 56.2596 20.0313 54.7787C15.5065 53.2728 11.7522 51.2398 8.76829 48.6797C5.80884 46.0945 3.60759 43.07 2.16456 39.6063C0.721519 36.1427 0 32.4406 0 28.5C0 24.5594 0.721519 20.8573 2.16456 17.3937C3.60759 13.93 5.80884 10.9181 8.76829 8.35799C11.7522 5.77279 15.5065 3.73976 20.0313 2.25892C24.5806 0.752972 29.9614 0 36.1738 0C38.4484 0 40.5518 0.100396 42.484 0.301189C44.4407 0.476882 46.2384 0.727873 47.8771 1.05416C49.5158 1.35535 50.9955 1.70674 52.3162 2.10832C53.637 2.50991 54.811 2.91149 55.8382 3.31308C58.2596 4.29194 60.253 5.38375 61.8183 6.58851L54.5909 17.3937C53.1478 16.6407 51.4847 15.9505 49.6014 15.323C47.9871 14.821 46.0427 14.3567 43.7681 13.93C41.5179 13.4782 38.9865 13.2523 36.1738 13.2523C32.1382 13.2523 28.7996 13.6915 26.1581 14.57C23.5411 15.4234 21.4499 16.5654 19.8846 17.996C18.3192 19.4267 17.2186 21.0581 16.5827 22.8904C15.9713 24.7226 15.6655 26.5925 15.6655 28.5Z" fill="#6D6D6D" fill-opacity="0.2"/>
<path d="M104.853 57C98.6402 57 93.2594 56.2596 88.7102 54.7787C84.1854 53.2728 80.431 51.2398 77.4471 48.6797C74.4877 46.0945 72.2864 43.07 70.8434 39.6063C69.4003 36.1427 68.6788 32.4406 68.6788 28.5C68.6788 24.5594 69.4003 20.8573 70.8434 17.3937C72.2864 13.93 74.4877 10.9181 77.4471 8.35799C80.431 5.77279 84.1854 3.73976 88.7102 2.25892C93.2594 0.752972 98.6402 0 104.853 0C111.065 0 116.434 0.752972 120.958 2.25892C125.508 3.73976 129.262 5.77279 132.221 8.35799C135.205 10.9181 137.419 13.93 138.862 17.3937C140.305 20.8573 141.026 24.5594 141.026 28.5C141.026 32.4406 140.305 36.1427 138.862 39.6063C137.419 43.07 135.205 46.0945 132.221 48.6797C129.262 51.2398 125.508 53.2728 120.958 54.7787C116.434 56.2596 111.065 57 104.853 57ZM104.853 43.7477C108.888 43.7477 112.215 43.321 114.832 42.4676C117.473 41.5892 119.576 40.4346 121.142 39.004C122.707 37.5733 123.796 35.9419 124.407 34.1096C125.043 32.2774 125.361 30.4075 125.361 28.5C125.361 26.5925 125.043 24.7226 124.407 22.8904C123.796 21.0581 122.707 19.4267 121.142 17.996C119.576 16.5654 117.473 15.4234 114.832 14.57C112.215 13.6915 108.888 13.2523 104.853 13.2523C100.817 13.2523 97.4784 13.6915 94.837 14.57C92.2199 15.4234 90.1287 16.5654 88.5634 17.996C86.9981 19.4267 85.8975 21.0581 85.2615 22.8904C84.6501 24.7226 84.3444 26.5925 84.3444 28.5C84.3444 30.4075 84.6501 32.2774 85.2615 34.1096C85.8975 35.9419 86.9981 37.5733 88.5634 39.004C90.1287 40.4346 92.2199 41.5892 94.837 42.4676C97.4784 43.321 100.817 43.7477 104.853 43.7477Z" fill="#6D6D6D" fill-opacity="0.2"/>
<path d="M210.182 28.5C210.182 32.3151 209.693 35.8666 208.715 39.1546C207.761 42.4174 206.195 45.2662 204.019 47.7008C201.842 50.1354 198.992 52.0429 195.471 53.4234C191.973 54.8038 187.693 55.4941 182.63 55.4941H148.364V1.50594H182.63C187.693 1.50594 191.973 2.20872 195.471 3.61427C198.992 4.99472 201.842 6.90225 204.019 9.33686C206.195 11.7464 207.761 14.5951 208.715 17.8831C209.693 21.1711 210.182 24.71 210.182 28.5ZM163.883 42.2417H182.63C186.788 42.2417 189.821 41.0997 191.728 38.8157C193.636 36.5066 194.59 33.068 194.59 28.5C194.59 23.932 193.636 20.5059 191.728 18.2219C189.821 15.9128 186.788 14.7583 182.63 14.7583H163.883V42.2417Z" fill="#6D6D6D" fill-opacity="0.2"/>
<path d="M217.556 55.4941V1.50594H253.914C256.751 1.50594 259.209 1.73184 261.288 2.18362C263.391 2.6103 265.189 3.20013 266.681 3.9531C268.173 4.70608 269.396 5.58454 270.35 6.58851C271.303 7.59247 272.049 8.65918 272.587 9.78864C273.15 10.9181 273.529 12.0852 273.725 13.29C273.945 14.4696 274.055 15.6242 274.055 16.7536C274.055 18.0086 273.871 19.1882 273.505 20.2926C273.138 21.397 272.6 22.4009 271.89 23.3045C271.181 24.2081 270.313 24.9987 269.286 25.6764C268.283 26.3289 267.145 26.856 265.874 27.2576C267.757 27.6843 269.335 28.3243 270.606 29.1777C271.903 30.031 272.93 31.0099 273.688 32.1143C274.471 33.2186 275.021 34.4234 275.339 35.7285C275.681 37.0337 275.853 38.3639 275.853 39.7193C275.853 40.924 275.718 42.1539 275.449 43.4089C275.18 44.6638 274.728 45.8811 274.092 47.0608C273.456 48.2153 272.6 49.3071 271.523 50.3362C270.472 51.3653 269.151 52.2688 267.561 53.0469C265.971 53.7999 264.1 54.4022 261.948 54.854C259.796 55.2807 257.301 55.4941 254.464 55.4941H217.556ZM254.464 43.0324C258.695 43.0324 260.811 41.5139 260.811 38.4769C260.811 35.4399 258.695 33.9214 254.464 33.9214H233.075V43.0324H254.464ZM253.914 22.5892C254.916 22.5892 255.748 22.4637 256.408 22.2127C257.093 21.9617 257.631 21.6354 258.023 21.2338C258.438 20.8322 258.732 20.3804 258.903 19.8785C259.074 19.3514 259.16 18.8243 259.16 18.2972C259.16 17.7701 259.074 17.2556 258.903 16.7536C258.732 16.2266 258.438 15.7622 258.023 15.3606C257.631 14.959 257.093 14.6328 256.408 14.3818C255.748 14.1308 254.916 14.0053 253.914 14.0053H233.075V22.5892H253.914Z" fill="#6D6D6D" fill-opacity="0.2"/>
<path d="M317.933 57C311.721 57 306.34 56.2596 301.791 54.7787C297.266 53.2728 293.512 51.2398 290.528 48.6797C287.568 46.0945 285.367 43.07 283.924 39.6063C282.481 36.1427 281.759 32.4406 281.759 28.5C281.759 24.5594 282.481 20.8573 283.924 17.3937C285.367 13.93 287.568 10.9181 290.528 8.35799C293.512 5.77279 297.266 3.73976 301.791 2.25892C306.34 0.752972 311.721 0 317.933 0C324.145 0 329.514 0.752972 334.039 2.25892C338.588 3.73976 342.342 5.77279 345.302 8.35799C348.286 10.9181 350.499 13.93 351.942 17.3937C353.385 20.8573 354.107 24.5594 354.107 28.5C354.107 32.4406 353.385 36.1427 351.942 39.6063C350.499 43.07 348.286 46.0945 345.302 48.6797C342.342 51.2398 338.588 53.2728 334.039 54.7787C329.514 56.2596 324.145 57 317.933 57ZM317.933 43.7477C321.969 43.7477 325.295 43.321 327.912 42.4676C330.554 41.5892 332.657 40.4346 334.222 39.004C335.788 37.5733 336.876 35.9419 337.487 34.1096C338.123 32.2774 338.441 30.4075 338.441 28.5C338.441 26.5925 338.123 24.7226 337.487 22.8904C336.876 21.0581 335.788 19.4267 334.222 17.996C332.657 16.5654 330.554 15.4234 327.912 14.57C325.295 13.6915 321.969 13.2523 317.933 13.2523C313.897 13.2523 310.559 13.6915 307.917 14.57C305.3 15.4234 303.209 16.5654 301.644 17.996C300.079 19.4267 298.978 21.0581 298.342 22.8904C297.731 24.7226 297.425 26.5925 297.425 28.5C297.425 30.4075 297.731 32.2774 298.342 34.1096C298.978 35.9419 300.079 37.5733 301.644 39.004C303.209 40.4346 305.3 41.5892 307.917 42.4676C310.559 43.321 313.897 43.7477 317.933 43.7477Z" fill="#6D6D6D" fill-opacity="0.2"/>
<path d="M413.944 1.50594V14.7583H391.601V55.4941H376.083V14.7583H353.74V1.50594H413.944Z" fill="#6D6D6D" fill-opacity="0.2"/>
<path d="M419.117 28.4247H453.53V39.0793H419.117V28.4247Z" fill="#6D6D6D" fill-opacity="0.2"/>
<path d="M495.977 14.7959V28.8012H515.788C517.084 28.8012 518.197 28.638 519.127 28.3118C520.056 27.9604 520.814 27.4835 521.401 26.8811C522.013 26.2536 522.453 25.5132 522.722 24.6598C523.016 23.7814 523.162 22.8276 523.162 21.7985C523.162 20.7695 523.016 19.8283 522.722 18.9749C522.453 18.0964 522.013 17.356 521.401 16.7536C520.814 16.1262 520.056 15.6493 519.127 15.323C518.197 14.9716 517.084 14.7959 515.788 14.7959H495.977ZM480.458 55.4941V1.50594H515.788C519.481 1.50594 522.759 1.95773 525.62 2.86129C528.482 3.76486 530.891 5.08256 532.848 6.8144C534.805 8.54624 536.284 10.6797 537.287 13.2147C538.314 15.7246 538.828 18.5859 538.828 21.7985C538.828 25.0112 538.314 27.8851 537.287 30.4201C536.284 32.93 534.805 35.0509 532.848 36.7827C530.891 38.5145 528.482 39.8322 525.62 40.7358C522.759 41.6394 519.481 42.0912 515.788 42.0912H496.014L495.977 55.4941H480.458Z" fill="#6D6D6D" fill-opacity="0.2"/>
<path d="M546.936 55.4941V1.50594H581.532C584.932 1.50594 588.087 1.85733 590.997 2.56011C593.908 3.23778 596.415 4.34214 598.518 5.87318C600.646 7.40423 602.309 9.3996 603.508 11.8593C604.706 14.2939 605.305 17.2556 605.305 20.7444C605.305 22.9531 604.963 24.8983 604.278 26.5799C603.618 28.2365 602.774 29.6797 601.747 30.9095C600.72 32.1143 599.582 33.1057 598.335 33.8838C597.112 34.6618 595.95 35.2517 594.85 35.6532L605.782 55.4941H589.126L579.918 38.8157H562.455V55.4941H546.936ZM562.455 14.7959V26.6929H581.532C584.345 26.6929 586.399 26.2411 587.696 25.3375C588.992 24.4089 589.64 22.8778 589.64 20.7444C589.64 18.6361 588.992 17.1176 587.696 16.1889C586.399 15.2602 584.345 14.7959 581.532 14.7959H562.455Z" fill="#6D6D6D" fill-opacity="0.2"/>
<path d="M647.826 57C641.614 57 636.233 56.2596 631.684 54.7787C627.159 53.2728 623.405 51.2398 620.421 48.6797C617.461 46.0945 615.26 43.07 613.817 39.6063C612.374 36.1427 611.652 32.4406 611.652 28.5C611.652 24.5594 612.374 20.8573 613.817 17.3937C615.26 13.93 617.461 10.9181 620.421 8.35799C623.405 5.77279 627.159 3.73976 631.684 2.25892C636.233 0.752972 641.614 0 647.826 0C654.039 0 659.407 0.752972 663.932 2.25892C668.481 3.73976 672.236 5.77279 675.195 8.35799C678.179 10.9181 680.392 13.93 681.835 17.3937C683.278 20.8573 684 24.5594 684 28.5C684 32.4406 683.278 36.1427 681.835 39.6063C680.392 43.07 678.179 46.0945 675.195 48.6797C672.236 51.2398 668.481 53.2728 663.932 54.7787C659.407 56.2596 654.039 57 647.826 57ZM647.826 43.7477C651.862 43.7477 655.188 43.321 657.805 42.4676C660.447 41.5892 662.55 40.4346 664.115 39.004C665.681 37.5733 666.769 35.9419 667.381 34.1096C668.016 32.2774 668.334 30.4075 668.334 28.5C668.334 26.5925 668.016 24.7226 667.381 22.8904C666.769 21.0581 665.681 19.4267 664.115 17.996C662.55 16.5654 660.447 15.4234 657.805 14.57C655.188 13.6915 651.862 13.2523 647.826 13.2523C643.791 13.2523 640.452 13.6915 637.811 14.57C635.193 15.4234 633.102 16.5654 631.537 17.996C629.972 19.4267 628.871 21.0581 628.235 22.8904C627.624 24.7226 627.318 26.5925 627.318 28.5C627.318 30.4075 627.624 32.2774 628.235 34.1096C628.871 35.9419 629.972 37.5733 631.537 39.004C633.102 40.4346 635.193 41.5892 637.811 42.4676C640.452 43.321 643.791 43.7477 647.826 43.7477Z" fill="#6D6D6D" fill-opacity="0.2"/>
</svg>
