<svg width="179" height="18" viewBox="0 0 179 18" fill="none" xmlns="http://www.w3.org/2000/svg">
<path fill-rule="evenodd" clip-rule="evenodd" d="M90.5631 0V3.96879H83.0896V17.5115H78.4735V3.96879H71V0H90.5631ZM92.8833 17.5115V0H104.204C105.351 0 106.389 0.113976 107.318 0.341927C108.254 0.569878 109.047 0.928087 109.699 1.41655C110.35 1.90502 110.851 2.52782 111.201 3.28494C111.559 4.04206 111.738 4.9498 111.738 6.00814C111.738 6.70828 111.64 7.32293 111.445 7.8521C111.258 8.38128 111.001 8.84125 110.676 9.23202C110.35 9.62279 109.972 9.95251 109.54 10.2212C109.117 10.4817 108.673 10.6974 108.209 10.8684L112.019 17.5115H106.841L103.459 11.6255H97.4993V17.5115H92.8833ZM97.4993 3.96879V8.04749H104.204C105.156 8.04749 105.86 7.89688 106.316 7.59566C106.772 7.2863 107 6.75712 107 6.00814C107 5.25916 106.772 4.73406 106.316 4.43284C105.86 4.12347 105.156 3.96879 104.204 3.96879H97.4993ZM120.054 14.4342H129.543L131.265 17.5115H136.113L126.502 0H123.107L113.497 17.5115H118.345L120.054 14.4342ZM127.455 10.6852H122.142L124.805 5.91045L127.455 10.6852ZM158.289 8.75577C158.289 9.99322 158.085 11.1452 157.678 12.2117C157.28 13.27 156.697 14.194 155.932 14.9837C155.175 15.7734 154.247 16.3921 153.148 16.8399C152.057 17.2877 150.82 17.5115 149.436 17.5115H138.066V0H149.436C150.852 0 152.11 0.227951 153.209 0.683853C154.308 1.13161 155.232 1.75034 155.981 2.54003C156.738 3.32157 157.312 4.24559 157.703 5.31208C158.094 6.37856 158.289 7.52646 158.289 8.75577ZM142.682 13.5427H149.436C150.168 13.5427 150.795 13.4166 151.316 13.1642C151.837 12.9118 152.261 12.5699 152.586 12.1384C152.92 11.7069 153.164 11.2022 153.319 10.6242C153.474 10.038 153.551 9.4152 153.551 8.75577C153.551 8.09634 153.474 7.47761 153.319 6.89959C153.164 6.31343 152.92 5.80461 152.586 5.37313C152.261 4.94166 151.837 4.59973 151.316 4.34735C150.795 4.09498 150.168 3.96879 149.436 3.96879H142.682V13.5427ZM177.962 10.5631V6.8019H165.469V3.96879H178.499V0H160.853V17.5115H178.695V13.5427H165.469V10.5631H177.962ZM16.0461 14.4342H6.55767L4.84803 17.5115H0L9.61058 1.52588e-05H13.0054L22.616 17.5115H17.768L16.0461 14.4342ZM8.64586 10.6852H13.9579L11.308 5.91046L8.64586 10.6852ZM32.9959 18C31.2293 18 29.7313 17.8128 28.502 17.4383C27.2809 17.0556 26.2877 16.5021 25.5224 15.7775C24.7571 15.0529 24.2035 14.1656 23.8616 13.1153C23.5197 12.057 23.3487 10.8521 23.3487 9.50069V1.52588e-05H27.9647V9.50069C27.9647 10.2985 28.0461 10.9824 28.209 11.5523C28.3718 12.1221 28.6486 12.5902 29.0394 12.9566C29.4301 13.3229 29.9471 13.5957 30.5902 13.7748C31.2334 13.9457 32.0353 14.0312 32.9959 14.0312C33.9566 14.0312 34.7585 13.9457 35.4016 13.7748C36.0448 13.5957 36.5617 13.3229 36.9525 12.9566C37.3433 12.5902 37.6201 12.1221 37.7829 11.5523C37.9457 10.9824 38.0271 10.2985 38.0271 9.50069V1.52588e-05H42.6432V9.50069C42.6432 10.8521 42.4722 12.057 42.1303 13.1153C41.7883 14.1656 41.2347 15.0529 40.4695 15.7775C39.7042 16.5021 38.7069 17.0556 37.4776 17.4383C36.2564 17.8128 34.7626 18 32.9959 18ZM62.6703 1.52588e-05L57.2117 11.1248L51.7531 1.52588e-05H45.6961V17.5115H50.3121V6.96067L55.502 17.5115H58.9213L64.1113 6.96067V17.5115H68.7273V1.52588e-05H62.6703Z" fill="white"/>
</svg>
