<svg width="180" height="15" viewBox="0 0 180 15" fill="none" xmlns="http://www.w3.org/2000/svg">
<path d="M4.12251 7.5C4.12251 8.00198 4.20296 8.49406 4.36387 8.97622C4.53122 9.45839 4.82085 9.88771 5.23278 10.2642C5.64471 10.6407 6.19502 10.9445 6.88372 11.1757C7.57885 11.4003 8.45741 11.5125 9.51942 11.5125C10.2403 11.5125 10.8678 11.4762 11.4021 11.4036C11.9363 11.3309 12.3386 11.2252 12.6089 11.0865V9.0753H9.13323V5.97424H16.3356V13.0284C15.9172 13.3983 15.4441 13.7087 14.9163 13.9597C14.395 14.2107 13.8382 14.4155 13.2461 14.574C12.6604 14.7259 12.0489 14.8349 11.4117 14.9009C10.7809 14.967 10.1502 15 9.51942 15C7.88457 15 6.46857 14.8052 5.2714 14.4155C4.08067 14.0192 3.09268 13.4841 2.30744 12.8104C1.52864 12.1301 0.949367 11.3342 0.56962 10.4227C0.189873 9.51123 0 8.53699 0 7.5C0 6.46301 0.189873 5.48877 0.56962 4.57728C0.949367 3.66579 1.52864 2.87318 2.30744 2.19947C3.09268 1.51915 4.08067 0.984148 5.2714 0.594452C6.46857 0.198151 7.88457 0 9.51942 0C10.118 0 10.6715 0.0264201 11.18 0.0792602C11.6949 0.125495 12.168 0.191546 12.5992 0.277411C13.0305 0.356671 13.4199 0.449141 13.7674 0.554822C14.115 0.660502 14.4239 0.766182 14.6943 0.871863C15.3315 1.12946 15.856 1.41678 16.268 1.73382L14.366 4.57728C13.9863 4.37913 13.5486 4.19749 13.053 4.03236C12.6282 3.90026 12.1165 3.77807 11.5179 3.66579C10.9258 3.5469 10.2596 3.48745 9.51942 3.48745C8.45741 3.48745 7.57885 3.60304 6.88372 3.83421C6.19502 4.05878 5.64471 4.35931 5.23278 4.7358C4.82085 5.11229 4.53122 5.54161 4.36387 6.02378C4.20296 6.50594 4.12251 6.99802 4.12251 7.5Z" fill="#1F3A99"/>
<path d="M27.5928 15C25.9579 15 24.5419 14.8052 23.3448 14.4155C22.154 14.0192 21.1661 13.4841 20.3808 12.8104C19.602 12.1301 19.0227 11.3342 18.643 10.4227C18.2632 9.51123 18.0734 8.53699 18.0734 7.5C18.0734 6.46301 18.2632 5.48877 18.643 4.57728C19.0227 3.66579 19.602 2.87318 20.3808 2.19947C21.1661 1.51915 22.154 0.984148 23.3448 0.594452C24.5419 0.198151 25.9579 0 27.5928 0C29.2276 0 30.6404 0.198151 31.8312 0.594452C33.0283 0.984148 34.0163 1.51915 34.7951 2.19947C35.5803 2.87318 36.1628 3.66579 36.5426 4.57728C36.9223 5.48877 37.1122 6.46301 37.1122 7.5C37.1122 8.53699 36.9223 9.51123 36.5426 10.4227C36.1628 11.3342 35.5803 12.1301 34.7951 12.8104C34.0163 13.4841 33.0283 14.0192 31.8312 14.4155C30.6404 14.8052 29.2276 15 27.5928 15ZM27.5928 11.5125C28.6548 11.5125 29.5301 11.4003 30.2188 11.1757C30.914 10.9445 31.4675 10.6407 31.8794 10.2642C32.2914 9.88771 32.5778 9.45839 32.7387 8.97622C32.906 8.49406 32.9897 8.00198 32.9897 7.5C32.9897 6.99802 32.906 6.50594 32.7387 6.02378C32.5778 5.54161 32.2914 5.11229 31.8794 4.7358C31.4675 4.35931 30.914 4.05878 30.2188 3.83421C29.5301 3.60304 28.6548 3.48745 27.5928 3.48745C26.5308 3.48745 25.6522 3.60304 24.9571 3.83421C24.2684 4.05878 23.7181 4.35931 23.3062 4.7358C22.8942 5.11229 22.6046 5.54161 22.4372 6.02378C22.2763 6.50594 22.1959 6.99802 22.1959 7.5C22.1959 8.00198 22.2763 8.49406 22.4372 8.97622C22.6046 9.45839 22.8942 9.88771 23.3062 10.2642C23.7181 10.6407 24.2684 10.9445 24.9571 11.1757C25.6522 11.4003 26.5308 11.5125 27.5928 11.5125Z" fill="#1F3A99"/>
<path d="M55.3111 7.5C55.3111 8.50396 55.1824 9.43857 54.9249 10.3038C54.6739 11.1625 54.262 11.9122 53.6891 12.5528C53.1163 13.1935 52.3664 13.6955 51.4396 14.0588C50.5192 14.4221 49.3928 14.6037 48.0605 14.6037H39.0431V0.396301H48.0605C49.3928 0.396301 50.5192 0.581242 51.4396 0.951123C52.3664 1.3144 53.1163 1.81638 53.6891 2.45707C54.262 3.09115 54.6739 3.84082 54.9249 4.70608C55.1824 5.57133 55.3111 6.50264 55.3111 7.5ZM43.127 11.1162H48.0605C49.1547 11.1162 49.9528 10.8157 50.4548 10.2147C50.9569 9.607 51.2079 8.70211 51.2079 7.5C51.2079 6.29789 50.9569 5.3963 50.4548 4.79524C49.9528 4.18758 49.1547 3.88375 48.0605 3.88375H43.127V11.1162Z" fill="#1F3A99"/>
<path d="M57.2517 14.6037V0.396301H66.8194C67.566 0.396301 68.2128 0.455746 68.7599 0.574637C69.3135 0.686922 69.7865 0.84214 70.1791 1.04029C70.5718 1.23844 70.8936 1.46962 71.1446 1.73382C71.3956 1.99802 71.5919 2.27873 71.7335 2.57596C71.8816 2.87318 71.9813 3.18032 72.0328 3.49736C72.0908 3.80779 72.1197 4.11162 72.1197 4.40885C72.1197 4.7391 72.0714 5.04954 71.9749 5.34016C71.8783 5.63078 71.7368 5.89498 71.5501 6.13276C71.3634 6.37054 71.1349 6.5786 70.8646 6.75694C70.6007 6.92867 70.3014 7.06737 69.9667 7.17305C70.4623 7.28534 70.8775 7.45376 71.2122 7.67834C71.5533 7.90291 71.8236 8.1605 72.0232 8.45112C72.2291 8.74174 72.374 9.05878 72.4576 9.40225C72.5477 9.74571 72.5928 10.0958 72.5928 10.4524C72.5928 10.7695 72.5574 11.0931 72.4866 11.4234C72.4158 11.7536 72.2967 12.074 72.1294 12.3844C71.962 12.6882 71.7368 12.9756 71.4536 13.2464C71.1768 13.5172 70.8292 13.755 70.4109 13.9597C69.9925 14.1579 69.5001 14.3164 68.9337 14.4353C68.3673 14.5476 67.7108 14.6037 66.9642 14.6037H57.2517ZM66.9642 11.3243C68.0777 11.3243 68.6344 10.9247 68.6344 10.1255C68.6344 9.32629 68.0777 8.92668 66.9642 8.92668H61.3356V11.3243H66.9642ZM66.8194 5.94452C67.0832 5.94452 67.3021 5.91149 67.4759 5.84544C67.6561 5.77939 67.7977 5.69353 67.9007 5.58785C68.0101 5.48217 68.0873 5.36328 68.1324 5.23118C68.1774 5.09247 68.2 4.95376 68.2 4.81506C68.2 4.67635 68.1774 4.54095 68.1324 4.40885C68.0873 4.27015 68.0101 4.14795 67.9007 4.04227C67.7977 3.93659 67.6561 3.85073 67.4759 3.78468C67.3021 3.71863 67.0832 3.6856 66.8194 3.6856H61.3356V5.94452H66.8194Z" fill="#1F3A99"/>
<path d="M83.6666 15C82.0318 15 80.6157 14.8052 79.4186 14.4155C78.2279 14.0192 77.2399 13.4841 76.4546 12.8104C75.6758 12.1301 75.0965 11.3342 74.7168 10.4227C74.3371 9.51123 74.1472 8.53699 74.1472 7.5C74.1472 6.46301 74.3371 5.48877 74.7168 4.57728C75.0965 3.66579 75.6758 2.87318 76.4546 2.19947C77.2399 1.51915 78.2279 0.984148 79.4186 0.594452C80.6157 0.198151 82.0318 0 83.6666 0C85.3014 0 86.7142 0.198151 87.905 0.594452C89.1021 0.984148 90.0901 1.51915 90.8689 2.19947C91.6542 2.87318 92.2366 3.66579 92.6164 4.57728C92.9961 5.48877 93.186 6.46301 93.186 7.5C93.186 8.53699 92.9961 9.51123 92.6164 10.4227C92.2366 11.3342 91.6542 12.1301 90.8689 12.8104C90.0901 13.4841 89.1021 14.0192 87.905 14.4155C86.7142 14.8052 85.3014 15 83.6666 15ZM83.6666 11.5125C84.7286 11.5125 85.604 11.4003 86.2926 11.1757C86.9878 10.9445 87.5413 10.6407 87.9532 10.2642C88.3652 9.88771 88.6516 9.45839 88.8125 8.97622C88.9798 8.49406 89.0635 8.00198 89.0635 7.5C89.0635 6.99802 88.9798 6.50594 88.8125 6.02378C88.6516 5.54161 88.3652 5.11229 87.9532 4.7358C87.5413 4.35931 86.9878 4.05878 86.2926 3.83421C85.604 3.60304 84.7286 3.48745 83.6666 3.48745C82.6046 3.48745 81.726 3.60304 81.0309 3.83421C80.3422 4.05878 79.7919 4.35931 79.38 4.7358C78.968 5.11229 78.6784 5.54161 78.511 6.02378C78.3501 6.50594 78.2697 6.99802 78.2697 7.5C78.2697 8.00198 78.3501 8.49406 78.511 8.97622C78.6784 9.45839 78.968 9.88771 79.38 10.2642C79.7919 10.6407 80.3422 10.9445 81.0309 11.1757C81.726 11.4003 82.6046 11.5125 83.6666 11.5125Z" fill="#1F3A99"/>
<path d="M108.933 0.396301V3.88375H103.053V14.6037H98.9691V3.88375H93.0895V0.396301H108.933Z" fill="#1F3A99"/>
<path d="M110.294 7.48019H119.35V10.284H110.294V7.48019Z" fill="#1F3A99"/>
<path d="M130.52 3.89366V7.57926H135.734C136.075 7.57926 136.368 7.53633 136.612 7.45046C136.857 7.35799 137.056 7.2325 137.211 7.07398C137.372 6.90885 137.488 6.714 137.558 6.48943C137.636 6.25826 137.674 6.00727 137.674 5.73646C137.674 5.46565 137.636 5.21797 137.558 4.99339C137.488 4.76222 137.372 4.56737 137.211 4.40885C137.056 4.24373 136.857 4.11823 136.612 4.03236C136.368 3.93989 136.075 3.89366 135.734 3.89366H130.52ZM126.436 14.6037V0.396301H135.734C136.706 0.396301 137.568 0.515192 138.321 0.752972C139.074 0.990753 139.708 1.33752 140.223 1.79326C140.738 2.24901 141.127 2.81044 141.391 3.47754C141.662 4.13804 141.797 4.89102 141.797 5.73646C141.797 6.5819 141.662 7.33818 141.391 8.00528C141.127 8.66579 140.738 9.22391 140.223 9.67966C139.708 10.1354 139.074 10.4822 138.321 10.7199C137.568 10.9577 136.706 11.0766 135.734 11.0766H130.53L130.52 14.6037H126.436Z" fill="#88019E"/>
<path d="M143.931 14.6037V0.396301H153.035C153.929 0.396301 154.76 0.488771 155.526 0.673712C156.292 0.852048 156.951 1.14267 157.505 1.54557C158.065 1.94848 158.502 2.47358 158.818 3.12087C159.133 3.76156 159.291 4.54095 159.291 5.45905C159.291 6.04029 159.201 6.55218 159.021 6.99472C158.847 7.43065 158.625 7.81044 158.354 8.13408C158.084 8.45112 157.785 8.71202 157.457 8.91678C157.135 9.12153 156.829 9.27675 156.539 9.38243L159.416 14.6037H155.033L152.61 10.2147H148.014V14.6037H143.931ZM148.014 3.89366V7.02444H153.035C153.775 7.02444 154.316 6.90555 154.657 6.66777C154.998 6.42338 155.168 6.02048 155.168 5.45905C155.168 4.90423 154.998 4.50462 154.657 4.26024C154.316 4.01585 153.775 3.89366 153.035 3.89366H148.014Z" fill="#88019E"/>
<path d="M170.481 15C168.846 15 167.43 14.8052 166.233 14.4155C165.042 14.0192 164.054 13.4841 163.269 12.8104C162.49 12.1301 161.911 11.3342 161.531 10.4227C161.151 9.51123 160.961 8.53699 160.961 7.5C160.961 6.46301 161.151 5.48877 161.531 4.57728C161.911 3.66579 162.49 2.87318 163.269 2.19947C164.054 1.51915 165.042 0.984148 166.233 0.594452C167.43 0.198151 168.846 0 170.481 0C172.115 0 173.528 0.198151 174.719 0.594452C175.916 0.984148 176.904 1.51915 177.683 2.19947C178.468 2.87318 179.051 3.66579 179.43 4.57728C179.81 5.48877 180 6.46301 180 7.5C180 8.53699 179.81 9.51123 179.43 10.4227C179.051 11.3342 178.468 12.1301 177.683 12.8104C176.904 13.4841 175.916 14.0192 174.719 14.4155C173.528 14.8052 172.115 15 170.481 15ZM170.481 11.5125C171.543 11.5125 172.418 11.4003 173.107 11.1757C173.802 10.9445 174.355 10.6407 174.767 10.2642C175.179 9.88771 175.466 9.45839 175.626 8.97622C175.794 8.49406 175.878 8.00198 175.878 7.5C175.878 6.99802 175.794 6.50594 175.626 6.02378C175.466 5.54161 175.179 5.11229 174.767 4.7358C174.355 4.35931 173.802 4.05878 173.107 3.83421C172.418 3.60304 171.543 3.48745 170.481 3.48745C169.419 3.48745 168.54 3.60304 167.845 3.83421C167.156 4.05878 166.606 4.35931 166.194 4.7358C165.782 5.11229 165.492 5.54161 165.325 6.02378C165.164 6.50594 165.084 6.99802 165.084 7.5C165.084 8.00198 165.164 8.49406 165.325 8.97622C165.492 9.45839 165.782 9.88771 166.194 10.2642C166.606 10.6407 167.156 10.9445 167.845 11.1757C168.54 11.4003 169.419 11.5125 170.481 11.5125Z" fill="#88019E"/>
</svg>
