<svg width="371" height="15" viewBox="0 0 371 15" fill="none" xmlns="http://www.w3.org/2000/svg">
<path d="M195.123 7.5C195.123 8.00198 195.203 8.49406 195.364 8.97622C195.531 9.45839 195.821 9.88771 196.233 10.2642C196.645 10.6407 197.195 10.9445 197.884 11.1757C198.579 11.4003 199.457 11.5125 200.519 11.5125C201.24 11.5125 201.868 11.4762 202.402 11.4036C202.936 11.3309 203.339 11.2252 203.609 11.0865V9.0753H200.133V5.97424H207.336V13.0284C206.917 13.3983 206.444 13.7087 205.916 13.9597C205.395 14.2107 204.838 14.4155 204.246 14.574C203.66 14.7259 203.049 14.8349 202.412 14.9009C201.781 14.967 201.15 15 200.519 15C198.885 15 197.469 14.8052 196.271 14.4155C195.081 14.0192 194.093 13.4841 193.307 12.8104C192.529 12.1301 191.949 11.3342 191.57 10.4227C191.19 9.51123 191 8.53699 191 7.5C191 6.46301 191.19 5.48877 191.57 4.57728C191.949 3.66579 192.529 2.87318 193.307 2.19947C194.093 1.51915 195.081 0.984148 196.271 0.594452C197.469 0.198151 198.885 0 200.519 0C201.118 0 201.672 0.0264201 202.18 0.0792602C202.695 0.125495 203.168 0.191546 203.599 0.277411C204.03 0.356671 204.42 0.449141 204.767 0.554822C205.115 0.660502 205.424 0.766182 205.694 0.871863C206.331 1.12946 206.856 1.41678 207.268 1.73382L205.366 4.57728C204.986 4.37913 204.549 4.19749 204.053 4.03236C203.628 3.90026 203.116 3.77807 202.518 3.66579C201.926 3.5469 201.26 3.48745 200.519 3.48745C199.457 3.48745 198.579 3.60304 197.884 3.83421C197.195 4.05878 196.645 4.35931 196.233 4.7358C195.821 5.11229 195.531 5.54161 195.364 6.02378C195.203 6.50594 195.123 6.99802 195.123 7.5Z" fill="#1F3A99"/>
<path d="M218.593 15C216.958 15 215.542 14.8052 214.345 14.4155C213.154 14.0192 212.166 13.4841 211.381 12.8104C210.602 12.1301 210.023 11.3342 209.643 10.4227C209.263 9.51123 209.073 8.53699 209.073 7.5C209.073 6.46301 209.263 5.48877 209.643 4.57728C210.023 3.66579 210.602 2.87318 211.381 2.19947C212.166 1.51915 213.154 0.984148 214.345 0.594452C215.542 0.198151 216.958 0 218.593 0C220.228 0 221.64 0.198151 222.831 0.594452C224.028 0.984148 225.016 1.51915 225.795 2.19947C226.58 2.87318 227.163 3.66579 227.543 4.57728C227.922 5.48877 228.112 6.46301 228.112 7.5C228.112 8.53699 227.922 9.51123 227.543 10.4227C227.163 11.3342 226.58 12.1301 225.795 12.8104C225.016 13.4841 224.028 14.0192 222.831 14.4155C221.64 14.8052 220.228 15 218.593 15ZM218.593 11.5125C219.655 11.5125 220.53 11.4003 221.219 11.1757C221.914 10.9445 222.467 10.6407 222.879 10.2642C223.291 9.88771 223.578 9.45839 223.739 8.97622C223.906 8.49406 223.99 8.00198 223.99 7.5C223.99 6.99802 223.906 6.50594 223.739 6.02378C223.578 5.54161 223.291 5.11229 222.879 4.7358C222.467 4.35931 221.914 4.05878 221.219 3.83421C220.53 3.60304 219.655 3.48745 218.593 3.48745C217.531 3.48745 216.652 3.60304 215.957 3.83421C215.268 4.05878 214.718 4.35931 214.306 4.7358C213.894 5.11229 213.605 5.54161 213.437 6.02378C213.276 6.50594 213.196 6.99802 213.196 7.5C213.196 8.00198 213.276 8.49406 213.437 8.97622C213.605 9.45839 213.894 9.88771 214.306 10.2642C214.718 10.6407 215.268 10.9445 215.957 11.1757C216.652 11.4003 217.531 11.5125 218.593 11.5125Z" fill="#1F3A99"/>
<path d="M246.311 7.5C246.311 8.50396 246.182 9.43857 245.925 10.3038C245.674 11.1625 245.262 11.9122 244.689 12.5528C244.116 13.1935 243.366 13.6955 242.44 14.0588C241.519 14.4221 240.393 14.6037 239.061 14.6037H230.043V0.396301H239.061C240.393 0.396301 241.519 0.581242 242.44 0.951123C243.366 1.3144 244.116 1.81638 244.689 2.45707C245.262 3.09115 245.674 3.84082 245.925 4.70608C246.182 5.57133 246.311 6.50264 246.311 7.5ZM234.127 11.1162H239.061C240.155 11.1162 240.953 10.8157 241.455 10.2147C241.957 9.607 242.208 8.70211 242.208 7.5C242.208 6.29789 241.957 5.3963 241.455 4.79524C240.953 4.18758 240.155 3.88375 239.061 3.88375H234.127V11.1162Z" fill="#1F3A99"/>
<path d="M248.252 14.6037V0.396301H257.819C258.566 0.396301 259.213 0.455746 259.76 0.574637C260.313 0.686922 260.787 0.84214 261.179 1.04029C261.572 1.23844 261.894 1.46962 262.145 1.73382C262.396 1.99802 262.592 2.27873 262.734 2.57596C262.882 2.87318 262.981 3.18032 263.033 3.49736C263.091 3.80779 263.12 4.11162 263.12 4.40885C263.12 4.7391 263.071 5.04954 262.975 5.34016C262.878 5.63078 262.737 5.89498 262.55 6.13276C262.363 6.37054 262.135 6.5786 261.865 6.75694C261.601 6.92867 261.301 7.06737 260.967 7.17305C261.462 7.28534 261.877 7.45376 262.212 7.67834C262.553 7.90291 262.824 8.1605 263.023 8.45112C263.229 8.74174 263.374 9.05878 263.458 9.40225C263.548 9.74571 263.593 10.0958 263.593 10.4524C263.593 10.7695 263.557 11.0931 263.487 11.4234C263.416 11.7536 263.297 12.074 263.129 12.3844C262.962 12.6882 262.737 12.9756 262.454 13.2464C262.177 13.5172 261.829 13.755 261.411 13.9597C260.992 14.1579 260.5 14.3164 259.934 14.4353C259.367 14.5476 258.711 14.6037 257.964 14.6037H248.252ZM257.964 11.3243C259.078 11.3243 259.634 10.9247 259.634 10.1255C259.634 9.32629 259.078 8.92668 257.964 8.92668H252.336V11.3243H257.964ZM257.819 5.94452C258.083 5.94452 258.302 5.91149 258.476 5.84544C258.656 5.77939 258.798 5.69353 258.901 5.58785C259.01 5.48217 259.087 5.36328 259.132 5.23118C259.177 5.09247 259.2 4.95376 259.2 4.81506C259.2 4.67635 259.177 4.54095 259.132 4.40885C259.087 4.27015 259.01 4.14795 258.901 4.04227C258.798 3.93659 258.656 3.85073 258.476 3.78468C258.302 3.71863 258.083 3.6856 257.819 3.6856H252.336V5.94452H257.819Z" fill="#1F3A99"/>
<path d="M274.667 15C273.032 15 271.616 14.8052 270.419 14.4155C269.228 14.0192 268.24 13.4841 267.455 12.8104C266.676 12.1301 266.097 11.3342 265.717 10.4227C265.337 9.51123 265.147 8.53699 265.147 7.5C265.147 6.46301 265.337 5.48877 265.717 4.57728C266.097 3.66579 266.676 2.87318 267.455 2.19947C268.24 1.51915 269.228 0.984148 270.419 0.594452C271.616 0.198151 273.032 0 274.667 0C276.301 0 277.714 0.198151 278.905 0.594452C280.102 0.984148 281.09 1.51915 281.869 2.19947C282.654 2.87318 283.237 3.66579 283.616 4.57728C283.996 5.48877 284.186 6.46301 284.186 7.5C284.186 8.53699 283.996 9.51123 283.616 10.4227C283.237 11.3342 282.654 12.1301 281.869 12.8104C281.09 13.4841 280.102 14.0192 278.905 14.4155C277.714 14.8052 276.301 15 274.667 15ZM274.667 11.5125C275.729 11.5125 276.604 11.4003 277.293 11.1757C277.988 10.9445 278.541 10.6407 278.953 10.2642C279.365 9.88771 279.652 9.45839 279.812 8.97622C279.98 8.49406 280.064 8.00198 280.064 7.5C280.064 6.99802 279.98 6.50594 279.812 6.02378C279.652 5.54161 279.365 5.11229 278.953 4.7358C278.541 4.35931 277.988 4.05878 277.293 3.83421C276.604 3.60304 275.729 3.48745 274.667 3.48745C273.605 3.48745 272.726 3.60304 272.031 3.83421C271.342 4.05878 270.792 4.35931 270.38 4.7358C269.968 5.11229 269.678 5.54161 269.511 6.02378C269.35 6.50594 269.27 6.99802 269.27 7.5C269.27 8.00198 269.35 8.49406 269.511 8.97622C269.678 9.45839 269.968 9.88771 270.38 10.2642C270.792 10.6407 271.342 10.9445 272.031 11.1757C272.726 11.4003 273.605 11.5125 274.667 11.5125Z" fill="#1F3A99"/>
<path d="M299.933 0.396301V3.88375H294.053V14.6037H289.969V3.88375H284.089V0.396301H299.933Z" fill="#1F3A99"/>
<path d="M301.294 7.48019H310.35V10.284H301.294V7.48019Z" fill="#1F3A99"/>
<path d="M321.52 3.89366V7.57926H326.734C327.075 7.57926 327.368 7.53633 327.612 7.45046C327.857 7.35799 328.056 7.2325 328.211 7.07398C328.372 6.90885 328.488 6.714 328.558 6.48943C328.636 6.25826 328.674 6.00727 328.674 5.73646C328.674 5.46565 328.636 5.21797 328.558 4.99339C328.488 4.76222 328.372 4.56737 328.211 4.40885C328.056 4.24373 327.857 4.11823 327.612 4.03236C327.368 3.93989 327.075 3.89366 326.734 3.89366H321.52ZM317.436 14.6037V0.396301H326.734C327.706 0.396301 328.568 0.515192 329.321 0.752972C330.074 0.990753 330.708 1.33752 331.223 1.79326C331.738 2.24901 332.127 2.81044 332.391 3.47754C332.662 4.13804 332.797 4.89102 332.797 5.73646C332.797 6.5819 332.662 7.33818 332.391 8.00528C332.127 8.66579 331.738 9.22391 331.223 9.67966C330.708 10.1354 330.074 10.4822 329.321 10.7199C328.568 10.9577 327.706 11.0766 326.734 11.0766H321.53L321.52 14.6037H317.436Z" fill="#88019E"/>
<path d="M334.93 14.6037V0.396301H344.035C344.929 0.396301 345.76 0.488771 346.526 0.673712C347.291 0.852048 347.951 1.14267 348.505 1.54557C349.065 1.94848 349.502 2.47358 349.818 3.12087C350.133 3.76156 350.291 4.54095 350.291 5.45905C350.291 6.04029 350.201 6.55218 350.02 6.99472C349.847 7.43065 349.625 7.81044 349.354 8.13408C349.084 8.45112 348.785 8.71202 348.456 8.91678C348.135 9.12153 347.829 9.27675 347.539 9.38243L350.416 14.6037H346.033L343.61 10.2147H339.014V14.6037H334.93ZM339.014 3.89366V7.02444H344.035C344.775 7.02444 345.315 6.90555 345.657 6.66777C345.998 6.42338 346.168 6.02048 346.168 5.45905C346.168 4.90423 345.998 4.50462 345.657 4.26024C345.315 4.01585 344.775 3.89366 344.035 3.89366H339.014Z" fill="#88019E"/>
<path d="M361.48 15C359.846 15 358.43 14.8052 357.232 14.4155C356.042 14.0192 355.054 13.4841 354.269 12.8104C353.49 12.1301 352.91 11.3342 352.531 10.4227C352.151 9.51123 351.961 8.53699 351.961 7.5C351.961 6.46301 352.151 5.48877 352.531 4.57728C352.91 3.66579 353.49 2.87318 354.269 2.19947C355.054 1.51915 356.042 0.984148 357.232 0.594452C358.43 0.198151 359.846 0 361.48 0C363.115 0 364.528 0.198151 365.719 0.594452C366.916 0.984148 367.904 1.51915 368.683 2.19947C369.468 2.87318 370.051 3.66579 370.43 4.57728C370.81 5.48877 371 6.46301 371 7.5C371 8.53699 370.81 9.51123 370.43 10.4227C370.051 11.3342 369.468 12.1301 368.683 12.8104C367.904 13.4841 366.916 14.0192 365.719 14.4155C364.528 14.8052 363.115 15 361.48 15ZM361.48 11.5125C362.542 11.5125 363.418 11.4003 364.107 11.1757C364.802 10.9445 365.355 10.6407 365.767 10.2642C366.179 9.88771 366.465 9.45839 366.626 8.97622C366.794 8.49406 366.877 8.00198 366.877 7.5C366.877 6.99802 366.794 6.50594 366.626 6.02378C366.465 5.54161 366.179 5.11229 365.767 4.7358C365.355 4.35931 364.802 4.05878 364.107 3.83421C363.418 3.60304 362.542 3.48745 361.48 3.48745C360.418 3.48745 359.54 3.60304 358.845 3.83421C358.156 4.05878 357.606 4.35931 357.194 4.7358C356.782 5.11229 356.492 5.54161 356.325 6.02378C356.164 6.50594 356.084 6.99802 356.084 7.5C356.084 8.00198 356.164 8.49406 356.325 8.97622C356.492 9.45839 356.782 9.88771 357.194 10.2642C357.606 10.6407 358.156 10.9445 358.845 11.1757C359.54 11.4003 360.418 11.5125 361.48 11.5125Z" fill="#88019E"/>
<path d="M8.55411 15C7.07621 15 5.73643 14.6823 4.53478 14.047C3.34693 13.3978 2.40771 12.5069 1.7171 11.3743C1.0403 10.2279 0.701904 8.93646 0.701904 7.5C0.701904 6.06354 1.0403 4.77901 1.7171 3.64641C2.40771 2.5 3.34693 1.60912 4.53478 0.973757C5.73643 0.324586 7.08312 0 8.57483 0C9.83174 0 10.9643 0.220995 11.9726 0.662984C12.9947 1.10497 13.8511 1.74033 14.5417 2.56906L12.387 4.55801C11.4063 3.42541 10.1909 2.85912 8.74058 2.85912C7.84279 2.85912 7.04168 3.05939 6.33726 3.45994C5.63284 3.84668 5.08036 4.39226 4.6798 5.09668C4.29306 5.8011 4.09969 6.60221 4.09969 7.5C4.09969 8.39779 4.29306 9.1989 4.6798 9.90332C5.08036 10.6077 5.63284 11.1602 6.33726 11.5608C7.04168 11.9475 7.84279 12.1409 8.74058 12.1409C10.1909 12.1409 11.4063 11.5677 12.387 10.4213L14.5417 12.4102C13.8511 13.2528 12.9947 13.895 11.9726 14.337C10.9505 14.779 9.81102 15 8.55411 15Z" fill="#68C196"/>
<path d="M26.0486 14.7514L23.2516 10.7113H23.0858H20.1646V14.7514H16.8082V0.248618H23.0858C24.3704 0.248618 25.4823 0.462707 26.4215 0.890884C27.3745 1.31906 28.1066 1.9268 28.6176 2.71409C29.1287 3.50138 29.3842 4.4337 29.3842 5.51105C29.3842 6.5884 29.1218 7.52072 28.5969 8.30801C28.0858 9.08149 27.3538 9.67541 26.4008 10.0898L29.6535 14.7514H26.0486ZM25.9864 5.51105C25.9864 4.69613 25.724 4.07459 25.1991 3.64641C24.6742 3.20442 23.9077 2.98343 22.8994 2.98343H20.1646V8.03867H22.8994C23.9077 8.03867 24.6742 7.81768 25.1991 7.37569C25.724 6.9337 25.9864 6.31215 25.9864 5.51105Z" fill="#68C196"/>
<path d="M38.8024 9.61326V14.7514H35.4461V9.57182L29.8314 0.248618H33.395L37.2693 6.69199L41.1436 0.248618H44.4378L38.8024 9.61326Z" fill="#68C196"/>
<path d="M51.9781 0.248618C53.2626 0.248618 54.3745 0.462707 55.3137 0.890884C56.2667 1.31906 56.9988 1.9268 57.5098 2.71409C58.0209 3.50138 58.2764 4.4337 58.2764 5.51105C58.2764 6.57459 58.0209 7.50691 57.5098 8.30801C56.9988 9.0953 56.2667 9.70304 55.3137 10.1312C54.3745 10.5456 53.2626 10.7528 51.9781 10.7528H49.0568V14.7514H45.7004V0.248618H51.9781ZM51.7916 8.01796C52.7999 8.01796 53.5665 7.80387 54.0913 7.37569C54.6162 6.9337 54.8786 6.31215 54.8786 5.51105C54.8786 4.69613 54.6162 4.07459 54.0913 3.64641C53.5665 3.20442 52.7999 2.98343 51.7916 2.98343H49.0568V8.01796H51.7916Z" fill="#68C196"/>
<path d="M63.2721 2.98343H58.6312V0.248618H71.2693V2.98343H66.6285V14.7514H63.2721V2.98343Z" fill="#68C196"/>
<path d="M79.8964 15C78.3908 15 77.0303 14.6754 75.8149 14.0262C74.6132 13.3771 73.6671 12.4862 72.9765 11.3536C72.2997 10.2072 71.9613 8.92265 71.9613 7.5C71.9613 6.07735 72.2997 4.79972 72.9765 3.66713C73.6671 2.52072 74.6132 1.62293 75.8149 0.973757C77.0303 0.324586 78.3908 0 79.8964 0C81.4019 0 82.7555 0.324586 83.9571 0.973757C85.1588 1.62293 86.1049 2.52072 86.7955 3.66713C87.4862 4.79972 87.8315 6.07735 87.8315 7.5C87.8315 8.92265 87.4862 10.2072 86.7955 11.3536C86.1049 12.4862 85.1588 13.3771 83.9571 14.0262C82.7555 14.6754 81.4019 15 79.8964 15ZM79.8964 12.1409C80.7527 12.1409 81.5262 11.9475 82.2168 11.5608C82.9074 11.1602 83.4461 10.6077 83.8328 9.90332C84.2334 9.1989 84.4337 8.39779 84.4337 7.5C84.4337 6.60221 84.2334 5.8011 83.8328 5.09668C83.4461 4.39226 82.9074 3.84668 82.2168 3.45994C81.5262 3.05939 80.7527 2.85912 79.8964 2.85912C79.04 2.85912 78.2665 3.05939 77.5759 3.45994C76.8853 3.84668 76.3397 4.39226 75.9392 5.09668C75.5524 5.8011 75.3591 6.60221 75.3591 7.5C75.3591 8.39779 75.5524 9.1989 75.9392 9.90332C76.3397 10.6077 76.8853 11.1602 77.5759 11.5608C78.2665 11.9475 79.04 12.1409 79.8964 12.1409Z" fill="#68C196"/>
<path d="M99.5777 2.94199V6.77486H106.29V9.46823H99.5777V14.7514H96.2214V0.248618H107.181V2.94199H99.5777Z" fill="#68C196"/>
<path d="M109.454 0.248618H112.81V12.0166H120.082V14.7514H109.454V0.248618Z" fill="#68C196"/>
<path d="M133.187 12.058V14.7514H121.957V0.248618H132.917V2.94199H125.293V6.09116H132.026V8.70166H125.293V12.058H133.187Z" fill="#68C196"/>
<path d="M144.852 14.7514L141.351 9.71685L137.912 14.7514H134.058L139.424 7.37569L134.327 0.248618H138.14L141.475 4.95166L144.749 0.248618H148.374L143.319 7.25138L148.727 14.7514H144.852Z" fill="#68C196"/>
<path d="M159.44 14.7514L155.939 9.71685L152.499 14.7514H148.646L154.012 7.37569L148.915 0.248618H152.727L156.063 4.95166L159.336 0.248618H162.962L157.907 7.25138L163.314 14.7514H159.44Z" fill="#68C196"/>
<path d="M182.107 15L180.367 13.384C178.986 14.4613 177.37 15 175.519 15C174.469 15 173.523 14.8343 172.68 14.5028C171.838 14.1575 171.175 13.6809 170.691 13.0732C170.222 12.4655 169.987 11.7818 169.987 11.0221C169.987 10.1243 170.236 9.33702 170.733 8.66022C171.244 7.96961 172.059 7.31354 173.178 6.69199C172.653 6.15332 172.273 5.64226 172.038 5.15884C171.803 4.6616 171.686 4.15055 171.686 3.62569C171.686 2.92127 171.872 2.29972 172.245 1.76105C172.618 1.22238 173.143 0.808011 173.82 0.517955C174.51 0.214088 175.305 0.0621539 176.202 0.0621539C177.459 0.0621539 178.468 0.366022 179.227 0.973757C179.987 1.56768 180.367 2.37569 180.367 3.39779C180.367 4.14365 180.139 4.80663 179.683 5.38674C179.241 5.96685 178.523 6.52624 177.528 7.06492L180.18 9.53039C180.498 8.8674 180.74 8.11464 180.906 7.2721L183.495 8.08011C183.219 9.36464 182.777 10.4627 182.169 11.3743L183.868 12.9489L182.107 15ZM176.202 2.25829C175.719 2.25829 175.332 2.3826 175.042 2.63121C174.766 2.87983 174.628 3.19751 174.628 3.58425C174.628 3.87431 174.704 4.15055 174.856 4.41298C175.008 4.6616 175.305 5 175.747 5.42818C176.451 5.05525 176.941 4.72376 177.218 4.4337C177.494 4.12983 177.632 3.80525 177.632 3.45994C177.632 3.10083 177.508 2.81077 177.259 2.58978C177.011 2.36878 176.658 2.25829 176.202 2.25829ZM175.747 12.4724C176.755 12.4724 177.66 12.1892 178.461 11.6229L174.959 8.34945C174.31 8.72238 173.848 9.0884 173.571 9.44751C173.295 9.80663 173.157 10.2141 173.157 10.6699C173.157 11.2086 173.392 11.6436 173.861 11.9751C174.331 12.3066 174.959 12.4724 175.747 12.4724Z" fill="#68C196"/>
</svg>
