<?xml version="1.0" encoding="utf-8"?>
<!-- Generator: Adobe Illustrator 25.4.1, SVG Export Plug-In . SVG Version: 6.00 Build 0)  -->
<svg version="1.1" id="Слой_1" xmlns="http://www.w3.org/2000/svg" xmlns:xlink="http://www.w3.org/1999/xlink" x="0px" y="0px"
	 viewBox="0 0 173.9 15" style="enable-background:new 0 0 173.9 15;" xml:space="preserve">
<style type="text/css">
	.st0{fill:#FFFFFF;}
</style>
<path class="st0" d="M4.4,7.5c0,0.5,0.1,1,0.2,1.5c0.2,0.5,0.5,0.9,0.9,1.3c0.4,0.4,1,0.7,1.7,0.9c0.7,0.2,1.6,0.3,2.7,0.3
	c0.7,0,1.4,0,1.9-0.1c0.5-0.1,1-0.2,1.2-0.3V9H9.5V5.9h7.4V13c-0.4,0.4-0.9,0.7-1.5,0.9c-0.5,0.3-1.1,0.5-1.7,0.6
	c-0.6,0.2-1.2,0.3-1.9,0.3c-0.6,0.1-1.3,0.1-1.9,0.1c-1.7,0-3.1-0.2-4.4-0.6c-1.2-0.4-2.2-0.9-3-1.6c-0.8-0.7-1.4-1.5-1.8-2.4
	C0.4,9.5,0.2,8.5,0.2,7.5s0.2-2,0.6-2.9s1-1.7,1.8-2.4c0.8-0.7,1.8-1.2,3-1.6C6.8,0.2,8.3,0,9.9,0c0.6,0,1.2,0,1.7,0.1
	c0.5,0,1,0.1,1.5,0.2c0.4,0.1,0.8,0.2,1.2,0.3c0.4,0.1,0.7,0.2,1,0.3c0.7,0.3,1.2,0.5,1.6,0.9l-2,2.8c-0.4-0.2-0.8-0.4-1.3-0.5
	c-0.4-0.1-1-0.3-1.6-0.4c-0.6-0.1-1.3-0.2-2.1-0.2c-1.1,0-2,0.1-2.7,0.3C6.5,4,6,4.3,5.5,4.7C5.1,5.1,4.8,5.5,4.6,6
	C4.5,6.5,4.4,7,4.4,7.5z"/>
<path class="st0" d="M28.5,15c-1.7,0-3.1-0.2-4.4-0.6c-1.2-0.4-2.2-0.9-3-1.6c-0.8-0.7-1.4-1.5-1.8-2.4c-0.4-0.9-0.6-1.9-0.6-2.9
	s0.2-2,0.6-2.9s1-1.7,1.8-2.4c0.8-0.7,1.8-1.2,3-1.6C25.3,0.2,26.8,0,28.5,0s3.1,0.2,4.3,0.6c1.2,0.4,2.2,0.9,3,1.6
	c0.8,0.7,1.4,1.5,1.8,2.4s0.6,1.9,0.6,2.9s-0.2,2-0.6,2.9c-0.4,0.9-1,1.7-1.8,2.4c-0.8,0.7-1.8,1.2-3,1.6C31.6,14.8,30.2,15,28.5,15
	z M28.5,11.5c1.1,0,2-0.1,2.7-0.3c0.7-0.2,1.3-0.5,1.7-0.9c0.4-0.4,0.7-0.8,0.9-1.3C33.9,8.5,34,8,34,7.5s-0.1-1-0.3-1.5
	c-0.2-0.5-0.5-0.9-0.9-1.3c-0.4-0.4-1-0.7-1.7-0.9c-0.7-0.2-1.6-0.3-2.7-0.3s-2,0.1-2.7,0.3c-0.7,0.2-1.3,0.5-1.7,0.9
	c-0.4,0.4-0.7,0.8-0.9,1.3c-0.2,0.5-0.2,1-0.2,1.5s0.1,1,0.2,1.5c0.2,0.5,0.5,0.9,0.9,1.3c0.4,0.4,1,0.7,1.7,0.9
	C26.5,11.4,27.4,11.5,28.5,11.5z"/>
<path class="st0" d="M56.9,7.5c0,1-0.1,1.9-0.4,2.8c-0.3,0.9-0.7,1.6-1.3,2.2c-0.6,0.6-1.4,1.1-2.3,1.5c-0.9,0.4-2.1,0.5-3.5,0.5
	h-9.3V0.4h9.3c1.4,0,2.5,0.2,3.5,0.6c1,0.4,1.7,0.9,2.3,1.5c0.6,0.6,1,1.4,1.3,2.2C56.8,5.5,56.9,6.5,56.9,7.5z M44.4,11.1h5.1
	c1.1,0,1.9-0.3,2.5-0.9c0.5-0.6,0.8-1.5,0.8-2.7s-0.3-2.1-0.8-2.7c-0.5-0.6-1.3-0.9-2.5-0.9h-5.1V11.1z"/>
<path class="st0" d="M58.9,14.6V0.4h9.8c0.8,0,1.4,0.1,2,0.2c0.6,0.1,1.1,0.3,1.5,0.5s0.7,0.4,1,0.7s0.5,0.5,0.6,0.8
	c0.2,0.3,0.3,0.6,0.3,0.9c0.1,0.3,0.1,0.6,0.1,0.9c0,0.3,0,0.6-0.1,0.9c-0.1,0.3-0.2,0.6-0.4,0.8c-0.2,0.2-0.4,0.4-0.7,0.6
	C72.6,6.9,72.3,7,72,7.1c0.5,0.1,0.9,0.3,1.3,0.5c0.4,0.2,0.6,0.5,0.8,0.8c0.2,0.3,0.4,0.6,0.4,1c0.1,0.3,0.1,0.7,0.1,1.1
	c0,0.3,0,0.6-0.1,1c-0.1,0.3-0.2,0.7-0.4,1c-0.2,0.3-0.4,0.6-0.7,0.9c-0.3,0.3-0.6,0.5-1.1,0.7c-0.4,0.2-0.9,0.4-1.5,0.5
	c-0.6,0.1-1.3,0.2-2,0.2H58.9z M68.9,11.3c1.1,0,1.7-0.4,1.7-1.2c0-0.8-0.6-1.2-1.7-1.2h-5.8v2.4H68.9z M68.7,5.9
	c0.3,0,0.5,0,0.7-0.1c0.2-0.1,0.3-0.2,0.4-0.3C70,5.5,70,5.3,70.1,5.2c0-0.1,0.1-0.3,0.1-0.4c0-0.1,0-0.3-0.1-0.4
	C70,4.2,70,4.1,69.8,4c-0.1-0.1-0.3-0.2-0.4-0.3c-0.2-0.1-0.4-0.1-0.7-0.1h-5.6v2.3H68.7z"/>
<path class="st0" d="M86,15c-1.7,0-3.1-0.2-4.4-0.6c-1.2-0.4-2.2-0.9-3-1.6c-0.8-0.7-1.4-1.5-1.8-2.4c-0.4-0.9-0.6-1.9-0.6-2.9
	s0.2-2,0.6-2.9s1-1.7,1.8-2.4c0.8-0.7,1.8-1.2,3-1.6C82.9,0.2,84.3,0,86,0c1.7,0,3.1,0.2,4.3,0.6c1.2,0.4,2.2,0.9,3,1.6
	c0.8,0.7,1.4,1.5,1.8,2.4s0.6,1.9,0.6,2.9s-0.2,2-0.6,2.9c-0.4,0.9-1,1.7-1.8,2.4c-0.8,0.7-1.8,1.2-3,1.6C89.2,14.8,87.7,15,86,15z
	 M86,11.5c1.1,0,2-0.1,2.7-0.3c0.7-0.2,1.3-0.5,1.7-0.9c0.4-0.4,0.7-0.8,0.9-1.3c0.2-0.5,0.3-1,0.3-1.5s-0.1-1-0.3-1.5
	c-0.2-0.5-0.5-0.9-0.9-1.3c-0.4-0.4-1-0.7-1.7-0.9C88,3.6,87.1,3.5,86,3.5c-1.1,0-2,0.1-2.7,0.3C82.6,4,82,4.3,81.6,4.7
	c-0.4,0.4-0.7,0.8-0.9,1.3c-0.2,0.5-0.2,1-0.2,1.5s0.1,1,0.2,1.5c0.2,0.5,0.5,0.9,0.9,1.3c0.4,0.4,1,0.7,1.7,0.9
	C84,11.4,84.9,11.5,86,11.5z"/>
<path class="st0" d="M112,0.4v3.5h-6v10.7h-4.2V3.9h-6V0.4H112z"/>
<path class="st0" d="M111.6,12.7c0-0.3,0.1-0.6,0.2-0.8c0.1-0.3,0.3-0.5,0.4-0.7c0.2-0.2,0.4-0.3,0.7-0.4c0.3-0.1,0.5-0.2,0.8-0.2
	c0.3,0,0.6,0.1,0.8,0.2c0.3,0.1,0.5,0.3,0.7,0.4c0.2,0.2,0.3,0.4,0.4,0.7c0.1,0.3,0.2,0.5,0.2,0.8c0,0.3-0.1,0.6-0.2,0.8
	c-0.1,0.3-0.3,0.5-0.4,0.7c-0.2,0.2-0.4,0.3-0.7,0.4c-0.3,0.1-0.5,0.2-0.8,0.2c-0.3,0-0.6-0.1-0.8-0.2c-0.3-0.1-0.5-0.3-0.7-0.4
	c-0.2-0.2-0.3-0.4-0.4-0.7C111.6,13.3,111.6,13,111.6,12.7z"/>
<path class="st0" d="M123.1,3.9v3.7h5.3c0.4,0,0.7,0,0.9-0.1c0.3-0.1,0.5-0.2,0.6-0.4c0.2-0.2,0.3-0.4,0.4-0.6
	c0.1-0.2,0.1-0.5,0.1-0.8c0-0.3,0-0.5-0.1-0.7c-0.1-0.2-0.2-0.4-0.4-0.6c-0.2-0.2-0.4-0.3-0.6-0.4c-0.3-0.1-0.6-0.1-0.9-0.1H123.1z
	 M118.9,14.6V0.4h9.5c1,0,1.9,0.1,2.7,0.4c0.8,0.2,1.4,0.6,2,1c0.5,0.5,0.9,1,1.2,1.7c0.3,0.7,0.4,1.4,0.4,2.3s-0.1,1.6-0.4,2.3
	c-0.3,0.7-0.7,1.2-1.2,1.7c-0.5,0.5-1.2,0.8-2,1c-0.8,0.2-1.7,0.4-2.7,0.4h-5.3l0,3.5H118.9z"/>
<path class="st0" d="M136.9,14.6V0.4h9.3c0.9,0,1.8,0.1,2.6,0.3c0.8,0.2,1.5,0.5,2,0.9c0.6,0.4,1,0.9,1.3,1.6
	c0.3,0.6,0.5,1.4,0.5,2.3c0,0.6-0.1,1.1-0.3,1.5c-0.2,0.4-0.4,0.8-0.7,1.1c-0.3,0.3-0.6,0.6-0.9,0.8c-0.3,0.2-0.6,0.4-0.9,0.5l3,5.2
	h-4.5l-2.5-4.4h-4.7v4.4H136.9z M141.1,3.9V7h5.2c0.8,0,1.3-0.1,1.7-0.4c0.3-0.2,0.5-0.6,0.5-1.2c0-0.6-0.2-1-0.5-1.2
	c-0.4-0.2-0.9-0.4-1.7-0.4H141.1z"/>
<path class="st0" d="M164.1,15c-1.7,0-3.1-0.2-4.4-0.6c-1.2-0.4-2.2-0.9-3-1.6c-0.8-0.7-1.4-1.5-1.8-2.4c-0.4-0.9-0.6-1.9-0.6-2.9
	s0.2-2,0.6-2.9s1-1.7,1.8-2.4c0.8-0.7,1.8-1.2,3-1.6c1.2-0.4,2.7-0.6,4.4-0.6c1.7,0,3.1,0.2,4.4,0.6c1.2,0.4,2.2,0.9,3,1.6
	c0.8,0.7,1.4,1.5,1.8,2.4c0.4,0.9,0.6,1.9,0.6,2.9s-0.2,2-0.6,2.9c-0.4,0.9-1,1.7-1.8,2.4c-0.8,0.7-1.8,1.2-3,1.6
	C167.2,14.8,165.8,15,164.1,15z M164.1,11.5c1.1,0,2-0.1,2.7-0.3c0.7-0.2,1.3-0.5,1.7-0.9c0.4-0.4,0.7-0.8,0.9-1.3
	c0.2-0.5,0.3-1,0.3-1.5s-0.1-1-0.3-1.5c-0.2-0.5-0.5-0.9-0.9-1.3c-0.4-0.4-1-0.7-1.7-0.9c-0.7-0.2-1.6-0.3-2.7-0.3
	c-1.1,0-2,0.1-2.7,0.3c-0.7,0.2-1.3,0.5-1.7,0.9c-0.4,0.4-0.7,0.8-0.9,1.3c-0.2,0.5-0.2,1-0.2,1.5s0.1,1,0.2,1.5
	c0.2,0.5,0.5,0.9,0.9,1.3c0.4,0.4,1,0.7,1.7,0.9C162.1,11.4,163,11.5,164.1,11.5z"/>
</svg>
