<svg width="60" height="60" viewBox="0 0 60 60" fill="none" xmlns="http://www.w3.org/2000/svg">
<rect width="60" height="60" rx="10" fill="#019E95"/>
<path d="M29.9999 14.5215C26.0545 14.5215 22.8562 17.7745 22.8562 21.7873C22.8562 25.8001 26.0545 29.0531 29.9999 29.0531C33.9453 29.0531 37.1436 25.8001 37.1436 21.7873C37.1436 17.7745 33.9453 14.5215 29.9999 14.5215Z" fill="white"/>
<path d="M29.9999 32.8772C26.5781 32.8772 23.4299 33.4043 21.0963 34.2943C19.9337 34.7378 18.9144 35.2935 18.1656 35.9688C17.4181 36.6428 16.8405 37.5339 16.8405 38.6134C16.8405 39.6929 17.4181 40.584 18.1656 41.258C18.9144 41.9333 19.9337 42.489 21.0963 42.9325C23.4299 43.8225 26.5781 44.3496 29.9999 44.3496C33.4218 44.3496 36.5699 43.8225 38.9035 42.9325C40.0661 42.489 41.0854 41.9333 41.8342 41.258C42.5817 40.584 43.1594 39.6929 43.1594 38.6134C43.1594 37.5339 42.5817 36.6428 41.8342 35.9688C41.0854 35.2935 40.0661 34.7378 38.9035 34.2943C36.5699 33.4043 33.4218 32.8772 29.9999 32.8772Z" fill="white"/>
</svg>
