<svg version="1.1" width="100" height="10" id="Слой_1" xmlns="http://www.w3.org/2000/svg" xmlns:xlink="http://www.w3.org/1999/xlink" x="0px" y="0px"
	 viewBox="0 0 596 57" enable-background="new 0 0 596 57" xml:space="preserve">
<path opacity="0.25" fill="#818181" d="M14.5,28.5c0,1.7,0.3,3.4,0.8,5.1c0.6,1.7,1.6,3.1,3.1,4.4c1.5,1.3,3.4,2.3,5.8,3.1
	c2.4,0.8,5.5,1.2,9.3,1.2c2.5,0,4.7-0.1,6.6-0.4c1.9-0.2,3.3-0.6,4.2-1.1v-6.9H32.2V23.3h25.4v24.2c-1.5,1.3-3.1,2.3-5,3.2
	c-1.8,0.9-3.8,1.6-5.9,2.1c-2.1,0.5-4.2,0.9-6.5,1.1c-2.2,0.2-4.4,0.3-6.7,0.3c-5.8,0-10.7-0.7-15-2c-4.2-1.4-7.7-3.2-10.4-5.5
	c-2.7-2.3-4.8-5.1-6.1-8.2c-1.3-3.1-2-6.5-2-10s0.7-6.9,2-10s3.4-5.8,6.1-8.2c2.8-2.3,6.2-4.2,10.4-5.5c4.2-1.4,9.2-2,15-2
	c2.1,0,4.1,0.1,5.8,0.3c1.8,0.2,3.5,0.4,5,0.7c1.5,0.3,2.9,0.6,4.1,1c1.2,0.4,2.3,0.7,3.3,1.1c2.2,0.9,4.1,1.9,5.5,3l-6.7,9.8
	c-1.3-0.7-2.9-1.3-4.6-1.9c-1.5-0.5-3.3-0.9-5.4-1.3c-2.1-0.4-4.4-0.6-7-0.6c-3.7,0-6.8,0.4-9.3,1.2c-2.4,0.8-4.4,1.8-5.8,3.1
	c-1.5,1.3-2.5,2.8-3.1,4.4C14.8,25.1,14.5,26.8,14.5,28.5z"/>
<path opacity="0.25" fill="#818181" d="M97.1,54.2c-5.8,0-10.7-0.7-15-2c-4.2-1.4-7.7-3.2-10.4-5.5c-2.7-2.3-4.8-5.1-6.1-8.2
	c-1.3-3.1-2-6.5-2-10s0.7-6.9,2-10s3.4-5.8,6.1-8.2C74.5,8,78,6.1,82.2,4.8c4.2-1.4,9.2-2,15-2s10.7,0.7,14.9,2
	c4.2,1.3,7.7,3.2,10.4,5.5c2.8,2.3,4.8,5,6.2,8.2c1.3,3.1,2,6.5,2,10s-0.7,6.9-2,10c-1.3,3.1-3.4,5.9-6.2,8.2
	c-2.7,2.3-6.2,4.1-10.4,5.5C107.9,53.6,102.9,54.2,97.1,54.2z M97.1,42.3c3.7,0,6.8-0.4,9.2-1.2c2.4-0.8,4.4-1.8,5.8-3.1
	c1.5-1.3,2.5-2.8,3-4.4c0.6-1.7,0.9-3.3,0.9-5.1s-0.3-3.4-0.9-5.1c-0.6-1.7-1.6-3.1-3-4.4c-1.5-1.3-3.4-2.3-5.8-3.1
	c-2.4-0.8-5.5-1.2-9.2-1.2s-6.8,0.4-9.3,1.2c-2.4,0.8-4.4,1.8-5.8,3.1c-1.5,1.3-2.5,2.8-3.1,4.4c-0.6,1.7-0.8,3.3-0.8,5.1
	s0.3,3.4,0.8,5.1c0.6,1.7,1.6,3.1,3.1,4.4c1.5,1.3,3.4,2.3,5.8,3.1C90.3,41.9,93.4,42.3,97.1,42.3z"/>
<path opacity="0.25" fill="#818181" d="M194.7,28.5c0,3.4-0.5,6.7-1.4,9.6c-0.9,2.9-2.3,5.5-4.4,7.7c-2,2.2-4.7,3.9-7.9,5.2
	c-3.2,1.2-7.2,1.9-11.9,1.9h-31.7V4.1h31.7c4.7,0,8.7,0.6,11.9,1.9c3.3,1.2,5.9,3,7.9,5.2c2,2.2,3.5,4.7,4.4,7.7
	C194.3,21.9,194.7,25.1,194.7,28.5z M151.8,40.9h17.4c3.9,0,6.7-1,8.4-3.1c1.8-2.1,2.7-5.2,2.7-9.3s-0.9-7.2-2.7-9.3
	c-1.8-2.1-4.6-3.1-8.4-3.1h-17.4V40.9z"/>
<path opacity="0.25" fill="#818181" d="M201.6,52.9V4.1h33.7c2.6,0,4.9,0.2,6.8,0.6c1.9,0.4,3.6,0.9,5,1.6c1.4,0.7,2.5,1.5,3.4,2.4
	s1.6,1.9,2.1,2.9c0.5,1,0.9,2.1,1.1,3.2c0.2,1.1,0.3,2.1,0.3,3.1c0,1.1-0.2,2.2-0.5,3.2c-0.3,1-0.8,1.9-1.5,2.7
	c-0.7,0.8-1.5,1.5-2.4,2.1c-0.9,0.6-2,1.1-3.2,1.4c1.7,0.4,3.2,1,4.4,1.7c1.2,0.8,2.2,1.7,2.9,2.7c0.7,1,1.2,2.1,1.5,3.3
	c0.3,1.2,0.5,2.4,0.5,3.6c0,1.1-0.1,2.2-0.4,3.3c-0.2,1.1-0.7,2.2-1.3,3.3c-0.6,1-1.4,2-2.4,3c-1,0.9-2.2,1.7-3.7,2.4
	c-1.5,0.7-3.2,1.2-5.2,1.6c-2,0.4-4.3,0.6-6.9,0.6H201.6z M235.8,41.6c3.9,0,5.9-1.4,5.9-4.1c0-2.7-2-4.1-5.9-4.1h-19.8v8.2H235.8z
	 M235.2,23.2c0.9,0,1.7-0.1,2.3-0.3c0.6-0.2,1.1-0.5,1.5-0.9c0.4-0.4,0.7-0.8,0.8-1.2c0.2-0.5,0.2-1,0.2-1.4c0-0.5-0.1-0.9-0.2-1.4
	c-0.2-0.5-0.4-0.9-0.8-1.3c-0.4-0.4-0.9-0.7-1.5-0.9c-0.6-0.2-1.4-0.3-2.3-0.3h-19.3v7.7H235.2z"/>
<path opacity="0.25" fill="#818181" d="M294.6,54.2c-5.8,0-10.7-0.7-15-2c-4.2-1.4-7.7-3.2-10.4-5.5c-2.7-2.3-4.8-5.1-6.1-8.2
	c-1.3-3.1-2-6.5-2-10s0.7-6.9,2-10s3.4-5.8,6.1-8.2c2.8-2.3,6.2-4.2,10.4-5.5c4.2-1.4,9.2-2,15-2c5.8,0,10.7,0.7,14.9,2
	c4.2,1.3,7.7,3.2,10.4,5.5c2.8,2.3,4.8,5,6.2,8.2c1.3,3.1,2,6.5,2,10s-0.7,6.9-2,10c-1.3,3.1-3.4,5.9-6.2,8.2
	c-2.7,2.3-6.2,4.1-10.4,5.5C305.3,53.6,300.3,54.2,294.6,54.2z M294.6,42.3c3.7,0,6.8-0.4,9.2-1.2c2.4-0.8,4.4-1.8,5.8-3.1
	c1.5-1.3,2.5-2.8,3-4.4c0.6-1.7,0.9-3.3,0.9-5.1s-0.3-3.4-0.9-5.1c-0.6-1.7-1.6-3.1-3-4.4c-1.5-1.3-3.4-2.3-5.8-3.1
	c-2.4-0.8-5.5-1.2-9.2-1.2c-3.7,0-6.8,0.4-9.3,1.2c-2.4,0.8-4.4,1.8-5.8,3.1c-1.5,1.3-2.5,2.8-3.1,4.4c-0.6,1.7-0.8,3.3-0.8,5.1
	s0.3,3.4,0.8,5.1c0.6,1.7,1.6,3.1,3.1,4.4c1.5,1.3,3.4,2.3,5.8,3.1C287.7,41.9,290.8,42.3,294.6,42.3z"/>
<path opacity="0.25" fill="#818181" d="M383.5,4.1v12h-20.7v36.8h-14.4V16.1h-20.7v-12H383.5z"/>
<path opacity="0.25" fill="#818181" d="M382.2,46.4c0-1,0.2-1.9,0.5-2.8c0.4-0.9,0.9-1.6,1.5-2.3c0.7-0.7,1.4-1.2,2.3-1.5
	c0.9-0.4,1.8-0.6,2.8-0.6c1,0,1.9,0.2,2.8,0.6c0.9,0.4,1.6,0.9,2.3,1.5c0.7,0.6,1.2,1.4,1.5,2.3c0.4,0.9,0.6,1.8,0.6,2.8
	c0,1-0.2,1.9-0.6,2.8c-0.4,0.9-0.9,1.6-1.5,2.3c-0.6,0.6-1.4,1.1-2.3,1.5c-0.9,0.4-1.8,0.6-2.8,0.6c-1,0-1.9-0.2-2.8-0.6
	c-0.9-0.4-1.6-0.9-2.3-1.5c-0.6-0.7-1.1-1.4-1.5-2.3C382.4,48.3,382.2,47.4,382.2,46.4z"/>
<path opacity="0.25" fill="#818181" d="M421.8,16.1v12.6h18.4c1.2,0,2.2-0.1,3.1-0.4c0.9-0.3,1.6-0.7,2.1-1.3c0.6-0.6,1-1.2,1.2-2
	c0.3-0.8,0.4-1.7,0.4-2.6c0-0.9-0.1-1.8-0.4-2.5c-0.3-0.8-0.7-1.5-1.2-2c-0.5-0.6-1.2-1-2.1-1.3c-0.9-0.3-1.9-0.5-3.1-0.5H421.8z
	 M407.4,52.9V4.1h32.7c3.4,0,6.5,0.4,9.1,1.2c2.7,0.8,4.9,2,6.7,3.6c1.8,1.6,3.2,3.5,4.1,5.8c1,2.3,1.4,4.8,1.4,7.7
	c0,2.9-0.5,5.5-1.4,7.8c-0.9,2.3-2.3,4.2-4.1,5.7c-1.8,1.6-4,2.8-6.7,3.6c-2.6,0.8-5.7,1.2-9.1,1.2h-18.3l0,12.1H407.4z"/>
<path opacity="0.25" fill="#818181" d="M469,52.9V4.1h32.1c3.1,0,6.1,0.3,8.8,1c2.7,0.6,5,1.6,7,3c2,1.4,3.5,3.2,4.6,5.4
	c1.1,2.2,1.7,4.9,1.7,8c0,2-0.3,3.8-1,5.3c-0.6,1.5-1.4,2.8-2.3,3.9c-1,1.1-2,2-3.2,2.7c-1.1,0.7-2.2,1.2-3.2,1.6l10.1,17.9h-15.4
	l-8.5-15.1h-16.2v15.1H469z M483.4,16.1v10.7h17.7c2.6,0,4.5-0.4,5.7-1.2c1.2-0.8,1.8-2.2,1.8-4.1c0-1.9-0.6-3.3-1.8-4.1
	c-1.2-0.8-3.1-1.3-5.7-1.3H483.4z"/>
<path opacity="0.25" fill="#818181" d="M562.5,54.2c-5.8,0-10.7-0.7-15-2c-4.2-1.4-7.7-3.2-10.4-5.5c-2.7-2.3-4.8-5.1-6.1-8.2
	c-1.3-3.1-2-6.5-2-10s0.7-6.9,2-10c1.3-3.1,3.4-5.8,6.1-8.2c2.8-2.3,6.2-4.2,10.4-5.5c4.2-1.4,9.2-2,15-2c5.8,0,10.7,0.7,14.9,2
	c4.2,1.3,7.7,3.2,10.4,5.5c2.8,2.3,4.8,5,6.2,8.2c1.3,3.1,2,6.5,2,10s-0.7,6.9-2,10c-1.3,3.1-3.4,5.9-6.2,8.2
	c-2.7,2.3-6.2,4.1-10.4,5.5C573.2,53.6,568.2,54.2,562.5,54.2z M562.5,42.3c3.7,0,6.8-0.4,9.2-1.2c2.4-0.8,4.4-1.8,5.8-3.1
	c1.5-1.3,2.5-2.8,3-4.4c0.6-1.7,0.9-3.3,0.9-5.1s-0.3-3.4-0.9-5.1c-0.6-1.7-1.6-3.1-3-4.4c-1.4-1.3-3.4-2.3-5.8-3.1
	c-2.4-0.8-5.5-1.2-9.2-1.2c-3.7,0-6.8,0.4-9.3,1.2c-2.4,0.8-4.4,1.8-5.8,3.1c-1.5,1.3-2.5,2.8-3.1,4.4c-0.6,1.7-0.9,3.3-0.9,5.1
	s0.3,3.4,0.9,5.1c0.6,1.7,1.6,3.1,3.1,4.4c1.4,1.3,3.4,2.3,5.8,3.1C555.7,41.9,558.7,42.3,562.5,42.3z"/>
</svg>
